/* XPM */
static char *bluebricks[] = {
/* columns rows colors chars-per-pixel */
"64 64 251 2 ",
"   c #24353F",
".  c #26343F",
"X  c #2A333A",
"o  c #1F3646",
"O  c #1D3748",
"+  c #1F3648",
"@  c #1C374A",
"#  c #1B374C",
"$  c #233543",
"%  c #243441",
"&  c #263441",
"*  c #203546",
"=  c #323F48",
"-  c #1E4355",
";  c #1F4256",
":  c #1E4356",
">  c #2B414F",
",  c #2D404E",
"<  c #2E404E",
"1  c #224153",
"2  c #224155",
"3  c #214255",
"4  c #214156",
"5  c #244355",
"6  c #264355",
"7  c #244357",
"8  c #234457",
"9  c #234358",
"0  c #3C4A55",
"q  c #3D4B56",
"w  c #3B4C56",
"e  c #364D5B",
"r  c #374D5B",
"t  c #344E5B",
"y  c #334D5C",
"u  c #334F5D",
"i  c #334E5F",
"p  c #374C5D",
"a  c #364D5D",
"s  c #344E5D",
"d  c #344E5F",
"f  c #2C4F63",
"g  c #2B4F65",
"h  c #2F4F64",
"j  c #304F63",
"k  c #2D5063",
"l  c #2F5063",
"z  c #2B5166",
"x  c #2D5064",
"c  c #2C5164",
"v  c #2C5066",
"b  c #2D5066",
"n  c #2B5168",
"m  c #295268",
"M  c #29516A",
"N  c #2C5068",
"B  c #3D5967",
"V  c #3E5867",
"C  c #3D566A",
"Z  c #3C576A",
"A  c #3B586A",
"S  c #3D5869",
"D  c #3C5969",
"F  c #3E5869",
"G  c #3D586B",
"H  c #3C596B",
"J  c #3A596D",
"K  c #2F5D77",
"L  c #2E5D79",
"P  c #325A73",
"I  c #355971",
"U  c #355B70",
"Y  c #345A71",
"T  c #365A70",
"R  c #375A70",
"E  c #345973",
"W  c #355B72",
"Q  c #365A72",
"!  c #325C72",
"~  c #335C72",
"^  c #325A74",
"/  c #335B74",
"(  c #335B75",
")  c #325B77",
"_  c #355A74",
"`  c #305D74",
"'  c #305C75",
"]  c #325C74",
"[  c #325C75",
"{  c #305C77",
"}  c #3B657D",
"|  c #3A677C",
" . c #39677E",
".. c #39677F",
"X. c #3A677E",
"o. c #3A667F",
"O. c #35697F",
"+. c #36687F",
"@. c #38687E",
"#. c #38687F",
"$. c #435762",
"%. c #445662",
"&. c #435664",
"*. c #405767",
"=. c #445664",
"-. c #436473",
";. c #406575",
":. c #416575",
">. c #466577",
",. c #4D6371",
"<. c #486577",
"1. c #43667A",
"2. c #466579",
"3. c #456679",
"4. c #45657A",
"5. c #46657A",
"6. c #7E777E",
"7. c #7A797E",
"8. c #7D787C",
"9. c #7D787E",
"0. c #827676",
"q. c #857576",
"w. c #847676",
"e. c #867B77",
"r. c #857B79",
"t. c #867B79",
"y. c #857B7A",
"u. c #867A7A",
"i. c #827D7A",
"p. c #847C7A",
"a. c #847B7C",
"s. c #887A79",
"d. c #386781",
"f. c #396781",
"g. c #386783",
"h. c #3F6780",
"j. c #3E6783",
"k. c #366881",
"l. c #3B6981",
"z. c #396882",
"x. c #3A6983",
"c. c #3B6983",
"v. c #3C6980",
"b. c #3C6881",
"n. c #3E6880",
"m. c #3E6881",
"M. c #3C6883",
"N. c #3B6885",
"B. c #3A6985",
"V. c #386987",
"C. c #3C6885",
"Z. c #3E7392",
"A. c #4C6F83",
"S. c #4E6E83",
"D. c #4B6F85",
"F. c #4C6F85",
"G. c #41738E",
"H. c #43728E",
"J. c #44728C",
"K. c #44718E",
"L. c #55798F",
"P. c #417290",
"I. c #407390",
"U. c #437290",
"Y. c #417292",
"T. c #407392",
"R. c #477E9D",
"E. c #477D9F",
"W. c #467E9F",
"Q. c #4B7C9A",
"!. c #4A7D9A",
"~. c #487D9C",
"^. c #487D9D",
"/. c #4A7D9C",
"(. c #527A93",
"). c #557991",
"_. c #7B7A80",
"`. c #7A7D82",
"'. c #7B7E83",
"]. c #7A7F83",
"[. c #7F7D80",
"{. c #7E7E80",
"}. c #7E7D82",
"|. c #7D7E82",
" X c #7D7E83",
".X c #7B7E85",
"XX c #7A7F85",
"oX c #787F87",
"OX c #467EA1",
"+X c #5B859E",
"@X c #5C849D",
"#X c #4D89AD",
"$X c #4F89AE",
"%X c #5287A6",
"&X c #5287A7",
"*X c #5187A9",
"=X c #5088A9",
"-X c #5088AB",
";X c #8D8582",
":X c #8E8482",
">X c #8F8784",
",X c #8D8787",
"<X c #8D8885",
"1X c #878789",
"2X c #86878B",
"3X c #84888B",
"4X c #868A8D",
"5X c #86898E",
"6X c #858A8E",
"7X c #8A8889",
"8X c #88888A",
"9X c #88898B",
"0X c #89898B",
"qX c #8A888B",
"wX c #89888D",
"eX c #88898D",
"rX c #88898E",
"tX c #908782",
"yX c #908684",
"uX c #918684",
"iX c #908685",
"pX c #97928F",
"aX c #99918E",
"sX c #99918F",
"dX c #9A908E",
"fX c #9A908F",
"gX c #838A90",
"hX c #858A90",
"jX c #8F9498",
"kX c #8D949A",
"lX c #8F949A",
"zX c #979191",
"xX c #969291",
"cX c #929395",
"vX c #939395",
"bX c #939297",
"nX c #929397",
"mX c #909497",
"MX c #999091",
"NX c #909398",
"BX c #929398",
"VX c #90939A",
"CX c #9F9B9A",
"ZX c #9C9C9E",
"AX c #A09B98",
"SX c #A29A98",
"DX c #A09A9A",
"FX c #999DA0",
"GX c #999CA1",
"HX c #989DA1",
"JX c #9B9CA0",
/* pixels */
"( ( ( ( v v v v v v v u qXyXyX5XH ( ( ( ( ( ( ( ( ( ( ( ( ( ( ( ( ( ( ( ( ( ( H '.t.t.'.2.M.M.M.( ( ( ( M.M.M.M.( ( ( ( ( ( ( ( ",
"( ( ( ( v v v v v v v u qXyXyX5XH ( ( ( ( ( ( ( ( ( ( ( ( ( ( ( ( ( ( ( ( ( ( H '.t.t.'.2.M.M.M.( ( ( ( M.M.M.M.( ( ( ( ( ( ( ( ",
"( ( ( ( v v v v v v v u qXyXyX5XH ( ( ( ( ( ( ( ( ( ( ( ( ( ( ( ( ( ( ( ( ( ( H '.t.t.'.2.M.M.M.( ( ( ( M.M.M.M.( ( ( ( ( ( ( ( ",
"( ( ( ( v v v v v v v u 5XyXyX5XH ( ( ( ( ( ( ( ( ( ( ( ( ( ( ( ( ( ( ( ( ( ( H '.t.t.'.2.M.M.M.( ( ( ( M.M.M.M.( ( ( ( ( ( ( ( ",
"( ( ( ( 4 4 4 - X.#.#.:.5XyXyXhX).^.^.^.U.H.H.U.^.^.^.^.U.H.H.H.M.M.M.M.M.M.M.2.5XyXyX5XH ( ( ( ( ( ( ( M.M.M.M.M.M.M.M.M.M.M.M.",
"( ( ( ( 4 4 4 - X.O.O.:.5XyXyXhX).OXW.W.U.U.U.U.W.W.W.W.U.U.U.U.M.M.M.M.M.M.M.2.5XyXyX5XH ( ( ( ( ( ( ( M.M.M.M.M.M.M.M.M.M.M.M.",
"( ( ( ( 4 4 4 - X.O.O.:.5XyXyXhX).W.W.W.U.U.U.U.W.W.OXW.U.U.U.U.M.M.M.M.M.M.M.2.5XyXyX5XH ( ( ( ( ( ( ( M.M.M.M.M.M.M.M.M.M.M.M.",
"( ( ( ( - 4 4 - X.O.#.:.5XyXyXhXL.^.^.^.H.H.H.H.^.^.W.^.U.H.U.H.M.M.M.M.M.M.M.2.5XyXyX5XH ( ( ( ( ( ( ( M.M.M.M.M.M.M.M.M.M.M.M.",
"( ( ( ( ( ( ( ( ( ( ( H 5XyXyX5Xu v M M ( ( ( ( ( ( ( ( ( ( ( ( M v v M ( ( ( H NXaXaXkX2.M.M.M.M.M.M.M.M.M.M.M.M.M.M.M.( ( ( ( ",
"( ( ( ( ( ( ( ( ( ( ( H 5XyXyXqXu v v v ( ( ( ( ( ( ( ( ( ( ( ( v v v v ( ( ( H NXaXaXkX2.M.M.M.M.M.M.M.M.M.M.M.M.M.M.M.( ( ( ( ",
"( ( ( ( ( ( ( ( ( ( ( H 5XyXyXqXu v v v ( ( ( ( ( ( ( ( ( ( ( ( v v v v ( ( ( H NXaXaXkX2.M.M.M.M.M.M.M.M.M.M.M.M.M.M.M.( ( ( ( ",
"H H H H H H H H H H H %.qXyXyXqXq u u u H H H H H H H H H H H H u u u u H H H %.mXaXaXmX,.2.2.2.2.2.2.2.2.2.2.2.2.2.2.2.H H H H ",
"mXjXNXNX'.'.'.'.'.'.'.'.t.t.t.t.qXqXqXqX'.'.'.'.'.'.'.'.'.'.'.'.NXNXNXNXNXkXNXmX>XyX>X>XmXkXkXkXkXkXkXkX5X5X5X5X5X5X5X5X5X5X5X5X",
"aXaXaXaXt.t.t.t.t.t.t.t.t.t.t.t.yXyXyXyXt.t.t.t.t.t.t.t.t.t.t.t.aXaXaXaXaXaXaXaXyXyX>X>XaXaXaXaXaXaXaXaXyXyXyXyXyXyXyXyXyXyXyXyX",
"aXaXaXaXt.t.t.t.t.t.t.t.t.t.t.t.yXyXyXyXt.t.t.t.t.t.t.t.t.t.t.t.aXaXaXaXaXaXaXaXyXyXyXyXaXaXaXaXaXaXaXaXyXyXyXyXyXyXyXyXyXyXyXyX",
"kXkXkXkX'.'.'.'.'.'.'.'.'.'.'.'.5X5X5X5X'.'.'.'.'.'.'.'.t.t.t.t.mXmXNXmXNXmXNXmX5X5X5X5XNXkXkXkXNXkXNXmX>XyXyX<XqX5X5X5X5X5X5X5X",
"S.S.S.S.S.S.S.S.S.S.S.S.2.2.2.2.H H H H H H H H H H H %.'.t.t.'.q u u u u u u u H H H H H H H H H H H %.qXyXyXqX%.H H H H H H H ",
"U.U.U.U.U.H.H.H.U.U.U.H.M.M.M.M.( ( ( ( ( ( ( ( ( ( ( H '.t.t.'.u v v v v v h v ( ( ( ( ( ( ( ( ( ( ( H 5XyXyX5XH ( ( ( ( ( ( ( ",
"U.U.U.U.U.U.H.H.U.U.U.H.M.M.M.M.( ( ( ( ( ( ( ( ( ( ( H '.t.t.'.u v v v v v v v ( ( ( ( ( ( ( ( ( ( ( H qXyXyX5XH ( ( ( ( ( ( ( ",
"H.H.H.H.H.H.H.H.H.H.U.H.M.M.M.M.( ( ( ( ( ( ( ( ( ( ( H '.t.t.'.u v v v v v v v ( ( ( ( ( ( ( ( ( ( ( H qXyXyX5XH ( ( ( ( ( ( ( ",
"M M M M ( ( ( ( f.d.d.d.f.f.f.f.f.X.f.X.f.f.f.X.( ( ( H NXaXaXNX:.M.M.X.v v v v ( ( ( ( ( ( ( ( ( ( ( H NXaXaXkX2.M.M.f.( ( ( ( ",
"v v v v ( ( ( ( X.d.d.d.f.f.k.k.f.f.f.f.f.f.f.X.( ( ( H NXaXaXNX2.M.M.M.v v v v ( ( ( ( ( ( ( ( ( ( ( H NXMXaXkX2.M.M.M.( ( ( ( ",
"v v v v ( ( ( ( X.f.d.d.f.f.f.f.f.f.f.f.f.f.f.X.( ( ( H NXaXaXkX2.M.M.M.v v v v ( ( ( ( ( ( ( ( ( ( ( H NXaXaXkX2.M.M.M.( ( ( ( ",
"v v v v ( ( ( ( X.X.X.X.X.X.X.X.f.f.f.f.f.f.f.X.( ( ( H NXaXaXkX2.M.M.M.M v v M ( ( ( ( ( ( ( ( ( ( ( H NXaXaXkX2.M.M.M.( ( ( ( ",
"( ( ( T 4 4 4 9 v v v v v v v M ( ( ( ( M.M.M.M.( ( ( H 5XyXyX5XH ( ( ( M.M.M.M.M.M.M.M.M.M.M.M.( ( ( H 5XyXyX5XH ( ( ( ( ( ( ( ",
"( ( ( ( 4 4 4 4 j v v v v v v v ( ( ( ( M.M.M.M.( ( ( H 5XyXyX5XH ( ( ( M.M.M.M.M.M.M.M.M.M.M.M.( ( ( H 5XyXyX5XH ( ( ( ( ( ( ( ",
"( ( ( ( 4 4 4 4 j v v v v v v v ( ( ( ( M.M.M.M.( ( ( H 5XyXyX5XH ( ( ( M.M.M.M.M.M.M.M.M.M.M.M.( ( ( H 5XyXyX5XH ( ( ( ( ( ( ( ",
"H H H H < < < < u u u u u u u u H H H H 2.2.2.2.H H H %.qXyXyXqX%.H H H 2.2.2.2.2.2.2.2.2.2.2.2.H H H %.qX>XyXqX%.H H H H H H H ",
"5X5X5XqX'.'.[.'.'.'.'.'.'.'.'.'.'.'.'.'.kXkXkXNXkXkXNXmXmXaXaXmXmXkXNXkXkXkXkXkX5X5X5X5XkXkXkXkXkXkXNXmXZXAXAXZXmXkXNXNXNXkXNXkX",
"yXyXyXyXt.t.t.t.t.t.t.t.t.t.s.s.t.t.t.t.aXaXaXaXaXaXaXaXaXaXaXaXaXaXaXaXaXaXaXaXyXyXyXyXaXaXmXmXaXaXaXaXAXAXAXAXaXaXaXaXaXaXaXaX",
"yXyXyXyXt.t.t.t.t.t.t.t.t.t.t.t.t.t.t.t.aXaXaXaXaXaXaXaXaXaXaXaXaXaXaXaXaXaXaXaXyXyXyXyXaXaXaXaXaXaXaXaXAXAXAXAXaXaXaXaXaXaXaXaX",
"qXqXqXqXt.t.t.t.[.'.'.'.'.'.'.'.'.'.'.'.kXkXkXkXkXkXkXNXkXkXNXkXNXkXNXNXNXmXNXmX<XyXyX<XmXmXNXmXNXmXNXNXHXHXHXHXmXaXaXmXmXkXmXmX",
"u u u q ZXAXAXHX%.H H H H H H H Z H H H 2.2.2.2.2.2.2.2.H H H H H H H H u u u q qXyXyXqXq u u u u u u u H H H %.7.t.t.'.%.H H H ",
"v v v u HXAXAXHXH ( ( ( ( ( ( ( ( ( ( ( M.M.M.M.M.M.M.M.( ( ( ( ( ( ( ( v v v u qXyXyXqXu v v v v v v v ( ( ( H '.t.t.'.H ( ( ( ",
"h h v u HXAXAXHXH ( ( ( ( ( ( ( ( ( ( ( M.M.M.M.M.M.M.M.( ( ( ( ( ( ( ( v v v u qXyXyXqXu v v v v v v v ( ( ( H '.t.t.'.H ( ( ( ",
"h h v u HXAXAXHXH ( ( ( ( ( ( ( ( ( ( ( M.M.M.M.M.M.M.M.( ( ( ( ( ( ( ( v v v u qXyXyXqXu v v v v v v v ( ( ( H '.t.t.'.H ( ( ( ",
"v v v u qXyXyX5XZ ( ( ( ( ( ( ( ( ( ( ( M v v v v v v v v v v v v v v v v v v u mXaXaXmXu v v v ( ( ( ( ( ( ( H '.e.t.'.u v v v ",
"v v v u qXyXyX5XZ ( ( ( ( ( ( ( ( ( ( ( v v v v v v v v v v v v v v v v v v v u NXaXaXmXu v v v ( ( ( ( ( ( ( H '.e.t.'.u v v v ",
"v v v u qXyXyX5XZ ( ( ( ( ( ( ( ( ( ( ( v v v v v v v v v v v v v v v v v v v u NXpXaXmXu v v v ( ( ( ( ( ( ( H '.t.t.'.u v v v ",
"v v v u qXyXyX5XZ ( ( ( ( ( ( ( ( ( ( ( M v v v v v v v v v v v v v v v v v v u kXpXaXmXu v v v ( ( ( ( ( ( ( H '.t.t.'.u v v v ",
"( ( ( H 5XyXyX5XZ ( ( ( M.M.M.M.M.M.M.M.M.M.M.M.( ( ( ( ( ( ( ( M.M.M.M.M.M.M.2.kXaXaXNXH ( ( ( v v v v v v v u mXaXaXmXH ( ( ( ",
"( ( ( H 5XyXyX5XZ ( ( ( M.M.M.M.M.M.M.M.M.M.M.M.( ( ( ( ( ( ( ( M.M.M.M.M.M.M.2.kXaXaXkXH ( ( ( v v v v v v v u mXaXaXmXH ( ( ( ",
"( ( ( H 5X>XyX5XZ ( ( ( M.M.M.M.M.M.M.M.M.M.M.M.( ( ( ( ( ( ( ( M.M.M.M.M.M.M.2.kXaXaXkXH ( ( ( v v v v v v v u mXaXaXmXH ( ( ( ",
"H H H %.qX>XyXqX%.Z Z H 2.2.2.2.2.2.2.2.2.2.2.2.H H H H H H H H 2.2.2.2.2.2.2.,.mXaXaXmX%.H H H u u u u u u u q mXaXaXmX%.H H H ",
"5X5X5XqX<XyXyX<X'.'.'.'.'.'.'.'.'.'.'.'.'.'.'.'.5X5X5X5X5X5X5X5X'.'.'.'.'.'.'.'.t.t.t.t.t.'.'.'.'.'.'.'.'.'.'.[.mXaXaXmXmXkXNXkX",
"yXyXyXyXyXyXyXyXt.t.t.t.t.t.t.t.t.t.t.t.t.t.t.t.yXyXyXyXyXyXyXyXt.t.t.t.t.t.t.t.t.t.t.t.t.t.t.t.t.t.t.t.t.t.t.t.aXaXaXaXaXaXaXaX",
"yXyXyXyXyXyXyXyXt.t.t.t.t.t.t.t.t.t.t.t.t.t.t.t.yXyXyXyXyXyXyXyXt.t.t.t.t.t.e.e.t.t.t.t.t.t.t.t.t.t.t.t.t.t.t.t.aXaXaXaXaXaXaXaX",
"5X5X5X5X5X5X5XqXt.t.t.t.'.'.'.'.'.'.'.'.'.'.'.'.5X5X5X5X5X5X5XqXt.t.t.t.'.'.'.'.'.'.'.'.'.'.'.'.'.'.'.'.'.'.'.'.NXNXkXkXkXkXkXkX",
"H H H H H H H %.qXyXyXqX,.2.:.:.2.2.2.2.2.2.2.2.H H H H H H H %.mXaXaXmX%.H H H H H H H H H H H H H H H H H H H 2.2.2.2.H H H H ",
"( ( ( ( ( ( ( H 5XyXyX5X2.M.M.M.M.M.M.M.M.M.M.M.( ( ( ( ( ( ( H NXaXaXkXH ( ( ( ( ( ( ( ( ( ( ( ( ( ( ( ( ( ( ( M.M.M.M.( ( ( ( ",
"( ( ( ( ( ( ( H 5XyXyX5X2.M.M.M.M.M.M.M.M.M.M.M.( ( ( ( ( ( ( H NXMXaXkXH ( ( ( ( ( ( ( ( ( ( ( ( ( ( ( ( ( ( ( M.M.M.M.( ( ( ( ",
"( ( ( ( ( ( ( %.qXyXyXqX,.M.M.M.M.M.M.M.M.M.M.M.( ( ( ( ( ( ( H NXaXaXNXH ( ( ( ( ( ( ( ( ( ( ( ( ( ( ( ( ( ( ( M.M.M.M.( ( ( ( ",
"v v v v # # # $ 7.w.w.'.u v v M ( ( ( ( ( ( ( ( M.M.M.M.( ( ( H 5XyXyX5XH ( ( ( ( ( ( ( ( ( ( ( ^.^.^.^.U.H.H.H.( ( ( ( M.M.M.M.",
"v v v j o o o . 6.w.w.7.p v v h ( ( ( ( ( ( ( ( M.M.M.M.( ( ( H 5XyXyX5XH ( ( ( ( ( ( ( ( ( ( ( ^.W.W.W.U.U.U.H.( ( ( ( M.M.M.M.",
"v v v j # $ o . 7.w.w.7.p v j v ( ( ( ( ( ( ( ( M.M.M.M.( ( ( H 5XyXyX5XH ( ( ( ( ( ( ( ( ( ( ( ^.W.W.W.Z.U.U.U.( ( ( ( M.M.M.M.",
"v v v h # $ o $ 7.w.w.7.u v j h ( ( ( ( ( ( ( ( M.M.M.M.( ( ( H 5XyXyXqXV T ( ( ( ( ( ( ( K K L ^.W.W.^.U.H.U.H.( ( ( ( M.M.M.M.",
"( ( ( T # # # $ qXyXyXqX< 4 4 4 v v v v h h h v ( ( ( ( ( ( ( H '.t.t.'.u v h v M.M.f.M.%X*X*X%XU.U.U.U.K ( ( ( ( ( ( ( H.H.U.H.",
"( ( ( T # # # $ qXyXyXqX< 4 4 4 h v v v h h v v ( ( ( ( ( ( ( H '.t.t.'.u h h v M.f.M.M.-X#X#X-XU.U.U.H.( ( ( ( ( ( ( ( H.U.U.U.",
"( ( ( ( # o o . qXyXyXqX< 4 4 4 j v v v h h h v ( ( ( ( ( ( ( Z '.t.s.'.u h h v M.M.M.M.-X#X#X-XU.U.U.H.( ( ( ( ( ( ( ( H.U.U.U.",
"H H H V $ . . X qXyXyXqX= < < < u u u u u u u u V H H H Z Z Z %.'.t.t.'.q u u u ,.2.2.2.@X@X@X@XS.S.S.S.H H H H H H H H S.S.S.S.",
"mXjXNXmXqXqXqXqXmXaXaXmXqXqXqXqXqXqXqXqX2X2X2X2X5X5X5X2X2X2X2X2XZXAXSXAXqX2X2X2X'.'.'.'.'.'.'.'.'.'.'.'.NXkXNXkXNXkXNXNX'.'.'.'.",
"aXaXaXaX>X>XyXyXaXaXaXaXyXyXyXyXyXyXyXyX>X>X>X>X>X>X>X>X>X>X>X>XAXAXAXAX>X>X>X>Xt.t.t.t.t.t.t.t.t.t.t.t.aXaXaXaXaXaXaXaXt.t.t.t.",
"aXaXaXaXyXyXyXyXaXaXaXaXyXyXyXyXyXyXyXyX>X>X>X>X>X>X>X>X>X>X>X>XAXAXAXAX>X>X>X>Xt.t.t.t.t.t.t.t.t.t.t.t.aXaXaXaXaXaXaXaXt.t.t.t.",
"aXaXaXaXyXyXyXyXaXaXaXaXyXyXyXyXyXyXyXyX>X>X>X>X>X>X>X>X>X>X>X>XAXAXAXAX>X>X>X>Xt.t.t.t.t.t.t.t.t.t.t.t.aXaXaXaXaXaXaXaXt.t.t.t."
};
