/* XPM */
static char *planks[] = {
/* columns rows colors chars-per-pixel */
"64 64 177 2 ",
"   c #866D45",
".  c #8B6B42",
"X  c #8E6B41",
"o  c #8E6B43",
"O  c #896C42",
"+  c #8D6C41",
"@  c #8D6C43",
"#  c #896B45",
"$  c #8B6B44",
"%  c #8D6B45",
"&  c #8E6B45",
"*  c #886C44",
"=  c #896C44",
"-  c #886C45",
";  c #886C47",
":  c #8B6F47",
">  c #8C6C45",
",  c #8C6F45",
"<  c #8C6F47",
"1  c #8B6F48",
"2  c #896F4A",
"3  c #8B6F4A",
"4  c #8C6E48",
"5  c #8B7045",
"6  c #897047",
"7  c #897048",
"8  c #887148",
"9  c #8D7048",
"0  c #93764E",
"q  c #95754C",
"w  c #96754C",
"e  c #95754E",
"r  c #997249",
"t  c #987349",
"y  c #98724B",
"u  c #99724B",
"i  c #99714D",
"p  c #96794D",
"a  c #95784E",
"s  c #96794F",
"d  c #957A4F",
"f  c #98794B",
"g  c #9B794B",
"h  c #9A7A4B",
"j  c #9D784B",
"k  c #99784D",
"l  c #98794D",
"z  c #9A794C",
"x  c #9B794C",
"c  c #98784F",
"v  c #99784F",
"b  c #9B784E",
"n  c #9A794E",
"m  c #9D784C",
"M  c #967951",
"N  c #977A50",
"B  c #957952",
"V  c #967852",
"C  c #9A7950",
"Z  c #A27B52",
"A  c #A47A50",
"S  c #A47A52",
"D  c #A28253",
"F  c #A58151",
"G  c #A58053",
"H  c #A78152",
"J  c #A68252",
"K  c #A28154",
"L  c #A38154",
"P  c #A18254",
"I  c #A28156",
"U  c #A18256",
"Y  c #A68154",
"T  c #A78154",
"R  c #A78055",
"E  c #A68155",
"W  c #A48254",
"Q  c #A48255",
"!  c #A48157",
"~  c #A68157",
"^  c #A78555",
"/  c #A78754",
"(  c #A78557",
")  c #A58657",
"_  c #A78756",
"`  c #A68657",
"'  c #A88752",
"]  c #A98054",
"[  c #A88754",
"{  c #AA8654",
"}  c #A88656",
"|  c #AA8656",
" . c #A18158",
".. c #A68558",
"X. c #A68758",
"o. c #A78758",
"O. c #A78659",
"+. c #AA8558",
"@. c #A88658",
"#. c #AD865B",
"$. c #AC875B",
"%. c #AA875D",
"&. c #AA875F",
"*. c #AD865D",
"=. c #AC875D",
"-. c #A88859",
";. c #AA885B",
":. c #AE895C",
">. c #AF895C",
",. c #AF885D",
"<. c #AE895D",
"1. c #AC8A5D",
"2. c #AC895F",
"3. c #AF885F",
"4. c #AE895F",
"5. c #AF8D5F",
"6. c #AE8E5F",
"7. c #B1875D",
"8. c #B18C5F",
"9. c #AC8961",
"0. c #AD8C61",
"q. c #AE8D60",
"w. c #AF8D60",
"e. c #AD8E60",
"r. c #AF8E61",
"t. c #AF8C62",
"y. c #AE8D62",
"u. c #AD8E62",
"i. c #AF8E63",
"p. c #AD8D64",
"a. c #AE8D64",
"s. c #B18C60",
"d. c #B08E60",
"f. c #B08E61",
"g. c #B18C62",
"h. c #B48F65",
"j. c #B48E67",
"k. c #B28F69",
"l. c #B58D69",
"z. c #B48E69",
"x. c #B59467",
"c. c #B49169",
"v. c #B69069",
"b. c #B69369",
"n. c #B4916B",
"m. c #B6906B",
"M. c #B6936B",
"N. c #B59469",
"B. c #B4946B",
"V. c #B5946B",
"C. c #B6956A",
"Z. c #B5936D",
"A. c #B2956D",
"S. c #B4946D",
"D. c #B6956C",
"F. c #BD9B75",
"G. c #BD9B76",
"H. c #BC9C75",
"J. c #BC9C76",
"K. c #BC9B78",
"L. c #BA9C7A",
"P. c #C3A37D",
"I. c #C1A37F",
"U. c #C3A27F",
"Y. c #C0A381",
"T. c #C1A381",
"R. c #C3A281",
"E. c #C1A283",
"W. c #C0A383",
"Q. c #C3A283",
"!. c #C7AD8C",
"~. c #C7AC8F",
"^. c #C9AC8A",
"/. c #CAAC8A",
"(. c #C9AB8F",
"). c #C9AC8C",
"_. c #C9AC8E",
/* pixels */
"w.w.w.w.*.*.*.*.c l l c c c c c S S S S S S S S c c c c S S S S c c c c c c r r c c c c < < < < c l l l l l l l l l l l [ [ [ [ ",
"w.w.w.w.*.*.*.*.c l l c c c c c S S S S S S S S c c c c S S S S c c c c c c r r c c c c < < < < c l l l l l l l l l l l [ [ [ [ ",
"w.w.w.w.*.*.*.*.c c c c c c c c S S S S S S S S c c c c [ [ S S c c c c c c c r c c c c < < < < c c c c l l l l l l l l [ [ [ [ ",
"5.5.5.d.*.*.*.*.c c c c c c c c S S S S S S S S c c c c [ ^ [ ^ c c c c c r r r c c c c < < < < l c c c l l l l c c c l [ [ [ [ ",
"^ [ [ ^ *.*.*.*.^ ^ ^ ^ *.[ [ *.8.8.d.d.d.d.d.d.d.w.d.w.d.d.d.d.d.w.d.w.d.w.d.w.d.5.d.w.*.[ [ [ [ [ [ [ [ [ [ [ < < < < l l l l ",
"[ [ [ [ *.*.*.*.^ ^ ^ ^ [ [ [ [ 5.5.w.w.w.w.5.5.w.w.w.w.d.d.d.d.w.w.w.w.w.w.w.w.5.5.5.5.[ [ [ [ [ [ [ [ [ [ [ [ < < < < l l l l ",
"[ [ [ [ *.*.*.*.[ [ ^ ^ [ [ [ [ 5.w.w.w.w.w.w.w.w.w.w.w.w.w.w.w.w.w.w.w.w.w.w.w.5.5.5.5.[ [ ^ [ [ [ [ [ S [ [ ^ < < < < l l l l ",
"o.o.o.o.*.*.*.*.^ ^ ^ ^ *.^ ^ 5.5.w.w.w.w.w.w.w.w.w.w.w.w.w.w.w.w.w.w.w.w.w.w.w.w.w.w.5.o.o.o.o.o.*.o.o.^ ^ ^ ^ < < < < C l l l ",
"5 5 5 5 < < < < < < < < l l l s < < < < s l l l l l l l l l l l l l l s < < < < < < < < < < < < < < < < < < < < < < < < < < < < ",
"7 7 7 7 < < 1 1 7 7 7 5 V e s s 1 7 7 5 M l l l s s s s s s s s s s s s 1 7 7 7 7 7 7 7 1 1 1 < < < < < < <     < < < < 7 7 7 7 ",
"7 7 7 7 < < 1 1 7 7 7 5 M s s s 1 7 7 5 M s l l s s s s s s s s s s s s 1 7 7 7 1 1 7 7 7 7 < <     < < < < < < 7 7 < < 7 7 7 7 ",
"< < < < < < < < < < < < c l l c < < < < l l l l l l l l l l l l l l l s < 5 5 < < 1 < < < < < < < < < < < < < < < < < < 5 5 5 5 ",
"^ ^ ^ ^ ^ ^ ^ ^ ^ ^ ^ ^ ^ ^ ^ ^ l l l l l l l l l l l l l l l l l l l l o.o.o.o.w.w.w.w.5.5.5.5.5.5.5.5.w.w.w.w.w.w.w.w.^ o.o.o.",
"^ ^ ^ ^ ^ ^ ^ ^ ^ ^ ^ ^ S ^ ^ ^ l l l l l l l l l l l l l l l l l l l l [ [ [ [ 5.w.w.w.*.5.*.*.*.*.*.*.8.5.w.w.w.w.w.5.[ [ [ [ ",
"^ ^ ^ ^ ^ ^ S ^ ^ ^ ^ ^ ^ S ^ ^ l l l l l l l l l l l l l l l l l l l l [ [ ^ ^ 5.w.w.w.5.5.5.5.*.*.7.*.8.w.w.w.w.w.w.5.[ [ [ [ ",
"^ ^ ^ ^ S ^ ^ ^ ^ ^ ^ ^ ^ ^ ^ ^ l l l l l l l l l l l l l l l l l l l l [ [ [ *.5.w.d.d.5.5.5.5.5.5.5.5.8.5.w.w.w.w.w.w.*.[ [ [ ",
"^ ^ ^ ^ ^ ^ ^ ^ ^ ^ S S ^ ^ ^ ^ [ [ [ [ 5.w.5.w.w.w.w.w.w.w.w.w.5.5.w.w.^ ^ ^ ^ S ^ ^ ^ [ [ [ [ [ [ [ [ 5.w.w.w.w.w.w.w.w.5.5.5.",
"^ S ^ S ^ ^ ^ ^ ^ ^ S ^ ^ ^ ^ ^ [ [ [ [ 5.w.w.w.w.w.w.w.w.w.w.w.5.5.w.d.^ ^ ^ ^ ^ S ^ ^ [ [ [ [ [ [ [ [ 5.w.w.w.w.w.w.w.w.w.w.w.",
"^ ^ ^ ^ ^ ^ ^ ^ ^ ^ ^ ^ ^ ^ ^ ^ [ [ [ [ 5.w.5.5.w.w.w.w.w.w.w.w.5.5.8.8.^ ^ ^ ^ S S ^ ^ [ [ [ [ [ [ [ [ 5.w.d.d.w.w.w.w.w.w.w.w.",
"^ ^ ^ ^ ^ ^ ^ ^ ^ ^ ^ ^ ^ ^ ^ ^ *.*.[ ^ w.w.w.w.w.w.w.w.w.w.w.w.w.w.w.w.^ ^ ^ ^ ^ ^ ^ ^ *.^ ^ ^ ^ ^ ^ ^ w.w.w.w.w.w.w.w.w.w.w.w.",
"< < < < < < < < c l l l l l l l < < < < < < < < < < < < e e e e < < < < < < < < c l l l l l l l l l l l l l l l < < < < < < < < ",
"7 7 1 1 7 7 7 5 M s s s s s s s < <           < < < < < e e e e <       < < < < V s s s s s s s s s s s s s l s 1 7 7 7 5 5 7 7 ",
"1 1 1 1 7 7 7 5 M s e e s s s s < < <         <     < < e e e e <   < < < < < < V s s s s s s s s s s s s s s s 1 7 7 7 5 5 5 5 ",
"1 < 1 < 1 < 1 < s l c l l l l l < < < < < < < <     < < e e e e < < < < < < < < s s c e l s l s l s l l l l l s < < < < < < < < ",
"S.S.S.S.S.S.S.S.w.w.w.w.w.w.w.w.w.w.w.w.S.S.S.S.S.S.S.S.S.S.S.S.S.S.S.S.S.S.S.S.S.S.S.S.S.S.S.S.S.S.S.S.w.5.w.w.w.w.w.w.S.S.S.S.",
"S.S.S.S.S.S.S.S.w.d.w.w.w.w.w.w.w.5.5.5.S.S.S.S.S.S.S.S.S.S.S.S.S.S.S.S.S.S.S.S.S.S.S.S.S.S.S.S.S.S.S.S.5.5.5.5.w.w.w.w.S.S.S.S.",
"S.S.S.S.S.S.S.S.w.w.w.w.w.w.w.w.w.w.5.5.S.S.S.S.S.S.S.S.S.S.S.S.S.S.S.S.S.S.S.S.S.S.S.S.S.S.S.S.S.S.S.S.w.5.5.5.w.w.w.w.S.S.S.S.",
"S.S.S.S.S.S.S.S.w.w.d.w.d.w.d.w.d.w.8.d.S.S.S.S.S.S.S.S.S.S.S.S.S.S.S.S.S.S.S.S.S.S.S.S.S.S.S.S.S.S.S.S.w.w.5.5.w.w.w.w.S.S.S.S.",
"5.5.5.5.5.5.5.5.5.5.*.5.*.5.*.5.5.5.5.5.S.S.S.l.^ ^ ^ S ^ ^ ^ ^ ^ ^ ^ ^ l l l l [ [ ^ ^ [ [ [ *.*.*.*.*.d.d.d.d.w.w.w.w.w.w.w.w.",
"*.*.*.*.5.5.5.5.*.*.*.*.*.*.*.*.5.5.5.5.S.l.S.l.S ^ ^ ^ ^ ^ ^ ^ [ [ ^ ^ l l l l [ [ ^ ^ [ [ [ [ *.*.*.*.l.l.l.d.w.w.w.w.w.w.w.w.",
"*.5.*.*.*.*.5.*.5.*.5.5.5.5.*.*.*.*.5.*.l.l.l.l.S S ^ ^ ^ ^ ^ ^ [ [ [ ^ l l l l [ [ ^ ^ [ [ ^ [ *.*.*.*.l.l.l.d.w.w.w.w.d.d.w.w.",
"5.5.5.*.5.5.5.5.5.5.5.5.5.5.*.*.5.5.5.w.S.S.S.S.^ ^ ^ ^ ^ ^ ^ ^ ^ ^ ^ ^ l l l l o.^ ^ ^ ^ [ ^ o.5.*.*.9.l.l.l.l.w.w.w.w.w.w.w.w.",
"< < < < < < < < < < < < < < < < < < < < 1 1 1 < < < < < < < < < < < < < < < < < s l l l ^ ^ ^ ^ l l l s < 1 1 1 < < < < < < 5 5 ",
"1 7 7 1 1 1 1 1 7 7 7 7 7 7 7 7 1 1 7 1 1 1 7 7 7 7 7 7 7 7 7 7 7 7 7 7 5 5 1 7 M s s s ^ ^ ^ ^ l s s s 7 7 7 7 7 7 7 7 7 7 5 5 ",
"1 1 1 1 < 7 5 < 7 7 7 7 7 7 7 7 7 7 1 1 7 7 7 7 7 7 7 7 7 7 7 7 7 7 7 7 5 5 5 5 M s s s ^ ^ ^ ^ l s s s 7 7 7 7 7 7 7 7 7 7 7 7 ",
"< < < 1 < < < < < < < < 7 < < < < < < < < < < < < < < < < < < < < < 1 < < < < < l l l l ^ ^ ^ ^ l l l s < < < < < < < < 5 5 5 5 ",
"^ ^ ^ ^ 5.5.5.5.5.5.5.5.^ ^ ^ ^ ^ ^ ^ ^ ^ ^ ^ ^ l l l l l l l l S.S.S.S.S.S.S.S.5.5.5.5.^ ^ ^ ^ l l l l l l l l l l l l *.*.o.^ ",
"^ ^ ^ ^ *.*.*.*.5.5.*.*.^ ^ ^ ^ ^ S S ^ ^ ^ ^ ^ l l l l l l l l S.S.S.S.S.S.S.S.5.5.5.5.^ ^ S ^ l l l l l l l l l l l l [ [ [ [ ",
"^ ^ ^ ^ *.*.*.*.*.*.*.*.^ ^ ^ ^ S S ^ ^ ^ ^ ^ ^ l l l l l l l l S.S.S.S.S.S.S.S.5.*.*.*.^ ^ S S l l l l l l l l l l l l [ [ [ [ ",
"^ ^ ^ ^ 5.5.5.5.5.5.5.5.^ ^ ^ ^ ^ ^ ^ ^ ^ ^ ^ ^ l l l l l l l l S.S.S.S.S.S.S.S.5.5.*.5.^ ^ S S l l l l l l l l l l l l *.[ [ [ ",
"[ [ [ [ [ [ [ *.S.S.S.S.S.S.S.S.w.w.w.w.d.w.d.w.w.w.w.w.w.w.w.w.*.[ [ *.w.w.w.w.w.w.d.5.[ [ [ [ [ [ [ [ [ [ [ *.S.S.S.S.S.S.S.S.",
"[ [ [ [ [ [ [ [ S.S.S.S.S.S.S.S.w.w.w.w.w.w.w.w.w.w.w.w.w.w.w.5.[ [ [ [ 5.w.w.w.w.w.w.5.[ [ [ [ [ [ [ [ [ [ [ [ S.S.S.S.S.S.S.S.",
"[ [ [ [ [ [ [ [ S.S.S.S.S.S.S.S.w.w.w.w.w.w.w.w.w.w.w.w.w.w.w.5.[ [ ^ ^ 5.w.w.w.w.w.w.5.[ [ [ [ [ [ [ [ [ [ [ [ S.S.S.S.S.S.S.S.",
"o.o.o.o.o.o.o.o.S.S.S.S.S.S.S.S.w.w.w.w.w.w.w.w.w.w.w.w.w.w.w.w.o.o.o.^ w.w.w.w.w.w.w.w.^ ^ ^ ^ ^ ^ ^ ^ o.o.o.o.S.S.S.S.S.S.S.S.",
"5 5 5 5 5 5 < < < < < < M s l l ^ ^ ^ ^ l l l l l l l s < < < < 5 5 5 5 < < < < s l l l l l l l l l l s < 5 5 < s s l s < < 1 < ",
"7 7 7 7 7 7 1 1 7 5 5 7 M M s s ^ ^ ^ ^ l s s s s s s s 1 7 7 7 7 7 7 7 7 7 7 5 M s s s s s s s s s s s < 7 7 5 M s s s 1 7 7 7 ",
"7 7 7 7 7 7 1 1 7 7 7 7 M s s s ^ ^ ^ ^ l s s s s s s s 1 7 7 7 7 7 7 7 7 7 7 5 M s s s s s s s s s s s < 7 7 5 M s s s 1 7 7 7 ",
"< < < < < < < < < < < < s l l l ^ ^ ^ ^ l l l l l l l s < < < < < < < < < < < < s l l l l l l l l l l s < 5 5 < s l l s < < 1 < ",
"w.w.w.w.w.w.w.w.w.w.w.w.o.^ ^ [ w.w.w.w.w.w.w.w.w.w.w.w.w.w.w.w.w.w.w.w.w.w.w.w.w.5.w.w.o.^ ^ o.w.w.w.w.o.o.o.o.w.w.w.w.S.S.S.S.",
"w.w.w.w.w.w.w.w.d.d.w.w.[ [ [ [ d.d.w.w.w.w.w.w.w.w.w.w.w.w.w.w.w.w.w.w.w.w.w.w.5.5.5.5.[ [ [ [ 8.w.w.5.[ [ [ [ 5.w.w.w.S.S.S.S.",
"w.w.w.w.w.w.w.w.d.d.d.d.[ [ [ [ 5.w.w.w.w.w.w.w.w.w.w.w.w.w.w.w.w.w.w.w.w.w.w.w.5.5.5.5.[ [ [ [ 5.w.w.5.[ [ [ ^ 5.w.w.w.S.S.S.S.",
"w.w.w.w.w.w.w.w.w.w.w.w.o.o.o.o.w.w.w.w.w.w.w.w.w.w.w.w.w.w.w.w.w.w.w.w.w.w.w.w.w.5.5.d.^ [ [ *.w.w.w.w.[ [ ^ o.w.w.w.w.S.S.S.S.",
"w.w.w.w.F.F.F.F.Y.Y.I.I.I.I.I.I.^.^.^.^.K.F.F.F.w.8.w.w.w.w.w.w.S.S.S.S.F.F.F.F.S.S.S.S.x.x.S.S.S.S.S.S.w.5.5.w.F.F.F.F.I.Y.Y.Y.",
"w.w.w.w.F.K.K.K.Y.Y.Y.Y.Y.Y.Y.Y.(.~.~.^.K.K.K.F.w.8.w.w.w.w.w.w.S.S.S.S.F.K.K.F.S.S.S.S.S.S.S.S.S.S.S.S.w.w.w.w.F.K.K.K.Y.Y.Y.Y.",
"w.w.w.w.F.K.K.K.Y.Y.Y.Y.Y.Y.Y.Y.(.~.~.^.K.K.K.F.w.w.w.w.w.w.w.w.S.S.S.S.F.K.K.F.S.S.S.S.S.S.S.S.S.S.S.S.w.w.w.w.F.K.K.K.Y.Y.Y.Y.",
"w.w.w.w.F.F.F.F.Y.Y.Y.Y.Y.Y.Y.Y.^.~.^.^.K.F.F.F.w.w.w.w.w.w.w.w.S.S.S.S.F.F.F.F.S.S.S.S.S.S.S.S.S.S.S.S.w.w.w.w.F.F.F.K.I.Y.Y.Y.",
"^ ^ ^ ^ ^ ^ ^  .1 7 1 7 1 1 1 1 M M M M o.^ ^ ^ s s e s l l l l ^ ^ ^ ^ l M M M s s s s < 1 1 1 < < < < < < < < M M M M M M M M ",
"^ ^ ^ ^ ^ ^ ^ ^ < 7 7 7 7 7 7 5 M M s s ^ ^ ^ ^ e s s s s s s s ^ ^ ^ ^ l s s s s s s s 1 7 1 7 5 5 5 5 1 1 7 < M s s s s s s s ",
"^ ^ ^ ^ ^ ^ ^ ^ < 1 7 7 7 7 7 5 M s s s ^ ^ ^ ^ e s s s s s s s ^ ^ ^ ^ l M s s s s s s 1 7 7 7 7 7 5 5 < < < < M s s s s s s s ",
"^ ^ ^ ^ ^ ^ ^ ^ < < < < < < < < s l l l ^ ^ ^ ^ l s e s l l l l ^ ^ ^ ^ l l l s l l l l < < < < < < < < < < < < s s s s l l l l ",
"w.w.w.w.w.w.w.w.o.o.o.o.l l l l l l l l l l l l l l l l l l l l w.w.w.w.^ ^ ^ ^ ^ ^ ^ ^ *.*.*.*.l l l l ^ ^ ^ ^ S.S.S.S.w.5.w.w.",
"w.w.w.w.w.w.w.5.^ ^ [ [ l l l l l l l l l l l l l l l l l l l l w.w.w.w.S ^ S S ^ ^ ^ ^ *.*.*.*.l l l l ^ ^ S ^ S.S.S.S.w.5.w.5.",
"w.w.w.w.w.w.w.5.^ ^ ^ ^ l l l l l l l l l l l l l l l l l l l l w.5.w.w.^ S ^ S ^ ^ ^ ^ *.*.*.*.l l l l ^ ^ ^ ^ S.S.S.S.w.5.5.5.",
"w.w.w.w.w.w.w.5.^ ^ ^ ^ l l l l l l l l l l l l l l l l l l l l w.5.w.w.^ S S ^ ^ ^ ^ ^ *.*.*.*.l l l l ^ ^ ^ ^ S.S.S.S.w.5.5.5."
};
