/* XPM */
static char *portal_frame6[] = {
/* columns rows colors chars-per-pixel */
"64 64 16 1 ",
"  c None",
". c #3012B4",
"X c #3711C2",
"o c #4317C2",
"O c #430ED8",
"+ c #6320D8",
"@ c #4E0CEC",
"# c #510BF1",
"$ c #540BF7",
"% c #560AFA",
"& c #580AFF",
"* c #6411FF",
"= c #872AF1",
"- c #8F2CF7",
"; c #8E28FF",
": c #9A2FFF",
/* pixels */
"                 &                                              ",
"                  &                                             ",
"                                                                ",
"                                                                ",
"                   &                                            ",
"                                                                ",
"                                                                ",
"                                                                ",
"                                                                ",
"                                                                ",
"                                                                ",
"                                                                ",
"                           ###.##.##.                           ",
"                        .###..&#&&#.###.                        ",
"                      ..##X.XX#X.#.X.####.                      ",
"                      ####;;#;..........#.                      ",
"                     #;##;&#--=##......X...   &&                ",
"&                   ##&&X#O.#.##=##.....X.## &&&               &",
" &&                ###&Xo+O+Xoo#-##.......##.&&              && ",
"                  ####&oOXXo+XOX.#-#.....X.X#@             &    ",
"     &           #.&X...XOO.OO+Oo...#.......##.                 ",
"        &        .#&Xo......&.&&++. ......O..&.        &        ",
"                 ##XXX.....  ...&++O... .....##                 ",
"                ##XoX.......    .&:&    ....X.&.                ",
"                ..X.......      ..&:&   .....X#.                ",
"                #XX.....           :&     .O..X&                ",
"               ##X..O. .          &&:     ....X#.               ",
"               .&X.X&. .           &:     ...X.##               ",
"               .#.X...             :&     ...XX&.               ",
"               ..XX...            &:       ..X#;&               ",
"               %X.O...           ::&       ....&#               ",
"              &#X..... .        :&        ..X.-&& &             ",
"               ......-     :::           ....X;X&& &            ",
"               ...O. -   &&&&         .   ...#;.& &             ",
"               X.O..--  &::             .....-*&&               ",
"               .XO.O=.  &:&     :        ..#####&               ",
"               ..O.==.  ::      :         #=;.o#.               ",
"               ....#=..&:&      &:       &--&X##.               ",
"               #X..#..&&:&       :&    ..:&&X*&#.               ",
"                &O#=...::&       &:  :.&:.XX*&&&                ",
"                #.#==.O:&:       &&:&:.&..Xo#&##                ",
"                ..##..O++..       OO*XX..Xo&&##.      &         ",
"        &        O#==..++O         &&:++O+X&#..                 ",
"     &&          #X#X.Oo+          O.OO +.&#X.#          &&     ",
"                 #X#...oOO.   .     .O OO#&#..#            &  & ",
"&&&               &&&=XXoOO.  ...    .X..&..##              &&&&",
"&&                 #&#OXoXX..    .. ...##.#&#                &&&",
"                &   &&;XXoX.........#&& ..##                    ",
"                     &=#XoX.X....#.%%&..#.#                     ",
"              &       #&#&&.#.&.####.X###&                      ",
"            &&        ##&#XoX#.#.######X..                      ",
"           &&           ###&&*&&&X.XX.&.&                       ",
"          &&&              ##.&oXX*X#    &                      ",
"           &                                                    ",
"                                          &                     ",
"                     &                    &&                    ",
"                                          &&&                   ",
"                                          &&&                   ",
"                                           &                    ",
"                   &                                            ",
"                   &                                            ",
"                                                                ",
"                  &                                             ",
"                 &&            &                               &"
};
