/* XPM */
static char *portal_frame7[] = {
/* columns rows colors chars-per-pixel */
"64 64 16 1 ",
"  c None",
". c #3012B4",
"X c #3212B7",
"o c #3413B7",
"O c #3F0FCF",
"+ c #3B10C8",
"@ c #4C19C8",
"# c #480DE1",
"$ c #560AFC",
"% c #570AFE",
"& c #580AFF",
"* c #5B0BFF",
"= c #962EFC",
"- c #972EFF",
"; c #982EFE",
": c #9A2FFF",
/* pixels */
"                                                                ",
"                                                                ",
"                                                                ",
"                                                                ",
"                                                                ",
"                                                                ",
"                                                                ",
"                                                                ",
"                                                                ",
"                                                                ",
"                                                                ",
"                                                                ",
"                              $$$$$ $                           ",
"                          $$$$.$$.$.$.$                         ",
"                       $$$$-$$-&.&.&$$.$$                       ",
"                       $-$$&$$&:-:&...$$$                       ",
"                     $$$$$&..&.&-::.$....$$$                    ",
"                    ...&..&@+@..$.$$$.....$$$                   ",
"                   $$$$.....X......$-$......$#                  ",
"                  ..$...@...+++@...$&$........$                 ",
"                  .&..........+.+++.$$:.......$                 ",
"                  $$....+ .  .   . @..$.......$                 ",
"                 $....... . ....   @@..$ .....&$                ",
"                $......+ ..        +@..$.......$                ",
"                .....+  ..          +  .$....+.$                ",
"                $&..+...                 . ....$                ",
"               $$...+...                  .....$&               ",
"               $....+ .                    .....$               ",
"               ......                      ....$&               ",
"               ....+.- .                 . ....$-               ",
"               O..++ :                      ....&               ",
"               .....-:.                   . ....&               ",
"               ..+.--.                     .....-               ",
"               ..+$-..                      ...&&               ",
"               .+.&..@+                    . ..--               ",
"               ..+-X.+                 . . ....$&               ",
"               ...:X@.                 .   ...$:&               ",
"               $.$:X++                     ...-&&               ",
"               $$&...+                   ....$$.&               ",
"                $.-......                .$$$-$&.               ",
"                $&...+..               ...:--$.$                ",
"                $$....+..        + ::..:::$$...$                ",
"                 $-@.... .       +&:.&&.$&..&&.                 ",
"                 $&&+....          . ......&&&$                 ",
"                  &$.......       + @@ .+..$.&$                 ",
"                  &-&...... ...   .++ @+.&&&&.                  ",
"                   $$&-.....       + +..&&$..                   ",
"                    $&&$..... .........$&$..                    ",
"                     &&.&$....$.....$$$&...                     ",
"                      $$$.$.$$$&$$$$$...$$                      ",
"                       $&&.$..$$........$                       ",
"                        $.$.&$.&$$$$$$&$#                       ",
"                           &..&.....$                           ",
"                                                                ",
"                                                                ",
"                                                                ",
"                                                                ",
"                                                                ",
"                                                                ",
"                                                                ",
"                                                                ",
"                                                                ",
"                                                                ",
"                                                                "
};
