/* XPM */
static char *portal_frame2[] = {
/* columns rows colors chars-per-pixel */
"64 64 5 1 ",
"  c None",
". c #3012B4",
"X c #4A0DE5",
"o c #580AFF",
"O c #9A2FFF",
/* pixels */
"                                o                               ",
"                                o                               ",
"                               oo                               ",
"                                 o                              ",
"                                o                         oo    ",
"                                                        ooo     ",
"                                o                      oo o     ",
"                                o                      o o      ",
"                                                       o        ",
"         oo                                           o         ",
"         oo                                          o          ",
"           o                            oo          o           ",
"            o             ...o.oooo...  oo                      ",
"             o          .o.o..ooooOooo.Xo         o             ",
"                      ....o.oooooooOooooo.                      ",
"               o     ..ooooo.......oooo.oo.                     ",
"                o    ..o.............oOoooo                     ",
"                    ooo..............ooO..oo                    ",
"                   .oo.................OOo..o                   ",
"                  o............  ......oOo.oo.                  ",
"                 .o........  . .........OO.oo.o                 ",
"                 ...........  .  . .....oOo..oo                 ",
"                 o.......... .    .  ....oo...o                 ",
"                .........          .. ...oO....o                ",
"                ......O O.          . ....o....o                ",
"                .....OOO  .            ...o....o                ",
"               .o..o.O...              .........o               ",
"               .o.oOo...               . .......o               ",
"               .oooO...                 ... ....o               ",
"               .ooO....                   .......               ",
"   ooo         oooO...                    . .....               ",
"  o   oo oo    oo....                      ......               ",
"        o      oo.....                     . ...o        oo  oo ",
"               ooO....                      .....     o    oo   ",
"               oo..... .                    .....               ",
"               oo.... .                    ......               ",
"               oo.... .                   ......o               ",
"               .oo... .                     ...oo               ",
"               .oO....                 .  ......o               ",
"                oo....  .                . ....o                ",
"                ooo......  .            .. ....O                ",
"                .o.o....... .        .   ......o                ",
"                 oo.o.... .  o ....   ........o                 ",
"                 oo.o..... .  oOOO..........oOo                 ",
"                 .oo.........  ...o..o......oOo                 ",
"                  o.oooo...... ....OOO.o..oOOo                  ",
"                   .....o..........o.OOOOoooo                   ",
"                    .ooooo...........oo.oo..   o                ",
"                     ...o.o............o...                     ",
"                     oo.ooooo..ooo.oo.o.o.o      o              ",
"                      ...o...ooooooooo.ooo        o             ",
"                        ooooo.....o..ooo           oo           ",
"           o              .oo..ooo....             oo           ",
"          o                   ooo                               ",
"                               o                                ",
"        o                                                       ",
"                                                                ",
"      o                                                         ",
"     o                                                          ",
"                                                                ",
"  oo                                                            ",
"  o                                                             ",
" o                                                              ",
"o                                                               "
};
