/* XPM */
static char *portal_frame4[] = {
/* columns rows colors chars-per-pixel */
"64 64 14 1 ",
"  c None",
". c #3012B4",
"X c #3F0FD1",
"o c #450EDC",
"O c #581DD1",
"+ c #6821DC",
"@ c #490DE2",
"# c #4F0CEE",
"$ c #580AFF",
"% c #7118FF",
"& c #7224E2",
"* c #8329EE",
"= c #8121FF",
"- c #9A2FFF",
/* pixels */
"$$                                                             $",
"$ $                                                           $ ",
"  $                                         $$               $  ",
"   $                                        $$                  ",
"                                            $                   ",
"     $             $$                      $              $     ",
"                   $$$                     $                    ",
"                    $$                                          ",
"                     $                    $                     ",
"                     $                                          ",
"                      $                  $                      ",
"                                                                ",
"                           X.XXX.XX.X                           ",
"                       $X...X..X...XXX..                        ",
"                      ..X.$.@...@.@.@.XX..                      ",
"                      .$$$.....#.@@#..$@X.                      ",
"                     X.X$....#. ...###X@.$X                     ",
"                    XX$....... .......#@@$$X                    ",
"                   XX@XXOo XX... ........@$XX                   ",
"                  .X@.XX+ooXoo.X  ....#...=$$X                  ",
"                 .X@.+O+oo..oo.      .  #.@$%XX                 ",
"        $$       XX%%.O.@.@          .. ...=%$$       $$        ",
"        $$$      X$%$.@@&&#***          ...&%$$     $$$$        ",
"            $$  .X$X$#&&###$$#--       ....@=$X$  $             ",
"               $.X$$#&.#$  .  $$       .  @@=$@$$               ",
"                X$$@#&         $-         ..=$@X                ",
"               XO$$@&.          -         ..O=.$$               ",
"               XX$....          -         .XX-@XX               ",
"               XX&....          -         .X%%X$X               ",
"               X@@@..           -          O$=$.X               ",
"               .@@&..                     .O$&$@@               ",
"$$  $          X$.....                    +%&@.X@               ",
"               X$@..                      +X#&@XX             $$",
"               XX...                      .X*@o.X               ",
"               @$.@..                     ..#@@..               ",
"               .@.@..                     .@*$o.X               ",
"               XX@..       -              .* Xo.X               ",
"               X@.@..                --   *# ooX$               ",
"               X.@@..                  ---#@.o..X               ",
"              $ ..##.                     .. o.. $              ",
"         $   $  .@...   .                 ..o .X   $$ $         ",
"        $$$$    X.@.#. .. #                   X.    $$$$        ",
"        $$       ..@.#++ .                .o XX       $$        ",
"                 X.@.#.+ . --            .oo.X.                 ",
"                 X@@##.o.. $#$.          o.X.X.                 ",
"                  ..@..X.. .*#.        oo X.XX                  ",
"                   .@.#$XO.#.*#.       o.X.XX                   ",
"                    $@..X+..#&@# .  .o.o..X.                    ",
"                     $..XOO..@&@.....o.XXX$                     ",
"                      .##X%.+.#&@@..X..X.@                      ",
"                      $$X$XX%#%@&@.X$@$=..                      ",
"                      $$$$$$X#OX%$&===@$                        ",
"                      $    $$$O$X$$X$                           ",
"                                                     $          ",
"                                                                ",
"                               $                       $        ",
"                               $                        $       ",
"                                                                ",
"                                                          $     ",
"                               $                           $    ",
"   $                           $                            $   ",
"                              $$                             $  ",
" $                            $$$                               ",
"$                              $                                "
};
