/* XPM */
static char *portal_frame1[] = {
/* columns rows colors chars-per-pixel */
"64 64 4 1 ",
"  c None",
". c #3012B4",
"X c #580AFF",
"o c #9A2FFF",
/* pixels */
"                                                                ",
"                                                                ",
"                                                                ",
"                                                                ",
"                                                                ",
"                                                                ",
"                                                                ",
"                                                                ",
"                                                                ",
"                                                                ",
"                                                                ",
"                                                                ",
"                           XXXXXXXXXX                           ",
"                        XXXXoXXoXX..XXXX                        ",
"                      XX...XXXXXXooX.X..XX                      ",
"                      ..XXX...X.XXXoo.XXX.                      ",
"                     XXX...........XoX..XXX                     ",
"                    XXX.............Xo....XX                    ",
"                   X.X...............oXX...XX                   ",
"                  ..X....... ........XXX....XX                  ",
"                 XXX....... ..  ......XoX....XX                 ",
"                 XX.....  ... ..   ....XX.....X                 ",
"                 ......... .    ..   ..Xo......                 ",
"                X.........           ...X......X                ",
"                X..... .             ....X.....X                ",
"                ......                ...X.....X                ",
"               X......o ..              .X.....XX               ",
"               X.....o                    ......X               ",
"               X....oo.                   . ....X               ",
"               X...Xo.                     .....X               ",
"               ..XXo..                     .....X               ",
"               X.Xo...                     ....XX               ",
"               X.Xo...                     .....X               ",
"               XXo....                      ...XX               ",
"               X.o....                     ....Xo               ",
"               XX.....                    .....XX               ",
"               XX..... .                   ....XX               ",
"               XXo.....              .   ......oX               ",
"               XX..... .             .  . ....XXX               ",
"                XX.... .  .           .. .....XX                ",
"                Xo.....             ........XooX                ",
"                XXX.....  .   .. ..........XoXXX                ",
"                 XXo.........  .Xoo...X.XXoXX..                 ",
"                 XXXX...... ..   ..XXoooooXX.XX                 ",
"                 XXX.X...... ...  ...X.XXX...XX                 ",
"                  XXX.X...................X.XX                  ",
"                   XXXXX................XX.XX                   ",
"                    XX..XXX...........XXX.XX                    ",
"                     XXX...XXX.....XXXXXXXX                     ",
"                      ..XXXX..XXXXXXXX....                      ",
"                      X....XXX..........XX                      ",
"                        XXX..XXXX...XXXX                        ",
"                           XX.X.XXXXX                           ",
"                                                                ",
"                                                                ",
"                                                                ",
"                                                                ",
"                                                                ",
"                                                                ",
"                                                                ",
"                                                                ",
"                                                                ",
"                                                                ",
"                                                                "
};
