/* XPM */
static char *portal_frame3[] = {
/* columns rows colors chars-per-pixel */
"64 64 4 1 ",
"  c None",
". c #3012B4",
"X c #580AFF",
"o c #9A2FFF",
/* pixels */
"                                 X                              ",
"                                X                            XX ",
"                                                            XoX ",
"                                                            o   ",
"    XX                          X                          X    ",
"    XoX                                                         ",
"      o                                                  X      ",
"       X                                  XX            X       ",
"                                          XX           X        ",
"         X           XX                   X                     ",
"          X          XX                  X           X          ",
"                      XX                 X                      ",
"                      XX   ..........                           ",
"             X         X.....X.XX.XX....X                       ",
"                      .....XX.XXXX.XXXX...                      ",
"                      ..X....X.X..XX.oXXX.                      ",
"                     ................XXoXX.                     ",
"                    XX...X.........X..XXoXX.                    ",
"                   XX..... ..  ....  .X.Xo.XX                   ",
"                  .X...... .      .. .  XoX.XX                  ",
"                 .XX..  .            ...XXXXX.X                 ",
"                 XX..                     o..XX                 ",
"                 .X..    o             .. oXX..                 ",
"             XX ... .  Xoooo           ...Xo..XX X              ",
"              XX.. ..XooXXXXo            .oXX...XXX             ",
"                .X..XoXX .  Xo            XoXXX.                ",
"               .XXXXoX                    XX.X.X.               ",
"               .XXXoX.                    Xo.X ..               ",
"               X.XXo.                     .oX ..X               ",
"               .XXo..                     .XXX .X               ",
"               XXX ..                      Xo  ..               ",
"X X  X  X      XX ...                     .Xo. .X               ",
"   XX          .....                      .o   ..       X  Xo o ",
"               .XX..                      oX   ..            X o",
"               XXo...                     XX   ..               ",
"               XX...                           ..               ",
"               .XX..                           .X               ",
"               ......                          ..               ",
"               .X.X..                          .X               ",
"             XXXX..X.                         ..XXX             ",
"            XXX .XX...                        .X XXX            ",
"             X  ...X..     o                  .X  X             ",
"                 .XX.X     Xo                ..                 ",
"                 .X... .    Xoo           .....                 ",
"                 .XXX...     XXo          ...XX                 ",
"                  ...XX..    X.X..        .X.X                  ",
"                   X...X..    X.oXX    .....X                   ",
"                    .XX.....   XXoo.X....XoX                    ",
"                     .X..XX .. .XXooo..XX.o                     ",
"                      XX.X....  .XXX.oX.oo                      ",
"                      .XXX.X.X..X...XX.XXX                      ",
"                        XX..X.XXX.XX..XX           X            ",
"                           XXXXXXX.XX                           ",
"                               X                     X          ",
"                                                                ",
"                               X                       XX       ",
"       X                       X                        XX      ",
"                              Xo                        X       ",
"                              XoX                               ",
"    X                          X                                ",
"   X                                                            ",
"                                                                ",
" X                                                              ",
"X                                                               "
};
