/* XPM */
static char *portal_frame5[] = {
/* columns rows colors chars-per-pixel */
"64 64 15 1 ",
"  c None",
". c #3012B4",
"X c #3C10CB",
"o c #511BCB",
"O c #460EDE",
"+ c #6B22DE",
"@ c #4C0CE8",
"# c #500CF0",
"$ c #550BF9",
"% c #580AFF",
"& c #6C15FF",
"* c #7926E8",
"= c #8529F0",
"- c #8624FF",
"; c #9A2FFF",
/* pixels */
"%                %%                           %                %",
"                 %;                          %                  ",
"                  %;                                            ",
"                   %                                            ",
"                   %                                            ",
"                    %                      %                    ",
"                                                                ",
"                     %                                          ",
"                                                                ",
"                                                                ",
"                      %                                         ",
"                                                                ",
"                           .@.@@@@@@@                           ",
"                        @@.%%.X.X..@.@@.                        ",
"                      @@@%%%.......XX.@@@.                      ",
"                      @.X%@.....O.O..X.%.@                      ",
"                     @.X*%@@@.@......XOX...                     ",
"                    @@-****@@##@......O.X.@.                    ",
"    %              .@%%.#=.#.###. .....O.XX@.               %   ",
"   %%%            %@@%%. XX.X..@.#.......OX@-.            %%%   ",
"    %%%          @@%%%+XooX+O.....@  .....X%%%.          %%%    ",
"        %        *%%%XoO.OOO%+++ .   ....O.X&%@        %        ",
"         %       @%%%Xo...%..%%O       .....X%@     %           ",
"             %  @@oX......    ..;     . ..XXX&%.                ",
"                @XX......     . %;    . ...X.%-@                ",
"                .XXX.....       %%;      ....&-%                ",
"               @@X.o....         ;        ...o-%.               ",
"               @%X.....          ;       ..XX%&%@               ",
"               X@.....           ;        ...&%%@               ",
"               .%.X...                    ...&%%@               ",
"               .X.X..                    ...@=&%@               ",
"               @X.X...                 ....#@=X@@               ",
"               X.X....                   ..*--@@@               ",
"               ..X....                    .=%&%%@               ",
"               .XX....                    ;%%o%.@               ",
"               %X....     ;             ..#XX.%X@               ",
"               @.....    ;              .%#OoX@X@               ",
"               @..O.. .  ;          ; ;;%%.+X@#@@               ",
"               @.X.O.*.  ;          ;#;...+XX%.@.               ",
"                X.O..*..%;             . ..%%@.@                ",
"             %  .OO..*..% .          ;;;++.%@#..   %            ",
"          %     .X...@.. ;;.         .   O.#@.@.     %%         ",
"      %%%        X..%@..O%O.         . ...%...@        %%%      ",
"    %%;          X..@@....+. .    .     ..#...@          ;;%    ",
"    %;%          %X..@..O.+..    ..   ......@@.           %;    ",
"                  $..@=..Oo..  ..   ....%#@@@.                  ",
"                %% %O%-...XOO...  ...####.@..                   ",
"               %%%  @%@.*.XXX...... ##%.@...                    ",
"               %%    %%@-OOoX....#..###@.@.                     ",
"                      %%@O-XoX..##.@...@@@                      ",
"                      @%%%*@-X.@...@@.%.@.                      ",
"                       %@@@%@%o&.X%&.@@.%%                      ",
"                      %    @@@@@@.@..   %%%                     ",
"                                        %%                      ",
"                     %                                          ",
"                     %                                          ",
"                    %%                                          ",
"                    %                                           ",
"                                                          %     ",
"                               %                                ",
"                                                            %   ",
"                                                             %  ",
"                               %                              % ",
"                               %                               %"
};
