/* XPM */
static char *potion[] = {
/* columns rows colors chars-per-pixel */
"64 64 238 2 ",
"   c None",
".  c #000101",
"X  c #04040F",
"o  c #1B0600",
"O  c #180803",
"+  c #000614",
"@  c #040E1A",
"#  c #160E16",
"$  c #00131E",
"%  c #19171A",
"&  c #230B00",
"*  c #231804",
"=  c #221705",
"-  c #2E160E",
";  c #1E241E",
":  c #352516",
">  c #3C2303",
",  c #000E21",
"<  c #001422",
"1  c #001B22",
"2  c #02142D",
"3  c #001E39",
"4  c #001C34",
"5  c #120F21",
"6  c #0E2323",
"7  c #102222",
"8  c #002335",
"9  c #002539",
"0  c #03323D",
"q  c #193839",
"w  c #1A2B32",
"e  c #26393A",
"r  c #2E312F",
"t  c #261927",
"y  c #691902",
"u  c #0A2D48",
"i  c #012A77",
"p  c #565A6A",
"a  c #881F00",
"s  c #982300",
"d  c #863004",
"f  c #A52900",
"g  c #B62A00",
"h  c #B63700",
"j  c #A53301",
"k  c #C73900",
"l  c #B94100",
"z  c #C94702",
"x  c #DE4600",
"c  c #C85701",
"v  c #D75703",
"b  c #E95A02",
"n  c #EA4F00",
"m  c #C56C06",
"M  c #D16F0A",
"N  c #E76603",
"B  c #F86801",
"V  c #FB7704",
"C  c #E47300",
"Z  c #DF9617",
"A  c #D48410",
"S  c #FC850B",
"D  c #FD8A11",
"F  c #FD9717",
"G  c #EB9110",
"H  c #FEAA19",
"J  c #FFB21D",
"K  c #D19A2F",
"L  c #FEB827",
"P  c #FEAD2F",
"I  c #FDC632",
"U  c #E0B447",
"Y  c #FFC84B",
"T  c #FFD457",
"R  c #003596",
"E  c #013189",
"W  c #2D01B3",
"Q  c #2D00BB",
"!  c #260EBF",
"~  c #3200BA",
"^  c #3100B6",
"/  c #0039AD",
"(  c #035296",
")  c #0048AB",
"_  c #0045B7",
"`  c #005CBC",
"'  c #0456B6",
"]  c #0357A8",
"[  c #0164BA",
"{  c #0B79A8",
"}  c #247ABA",
"|  c #4B5A87",
" . c #2908CB",
".. c #3400C3",
"X. c #3700C7",
"o. c #2C12C2",
"O. c #281CC9",
"+. c #270FD7",
"@. c #3C00DC",
"#. c #3300D7",
"$. c #221AD3",
"%. c #321DC9",
"&. c #3C00EC",
"*. c #3802E6",
"=. c #2A19E8",
"-. c #370EF0",
";. c #2923EA",
":. c #3920F9",
">. c #2136C6",
",. c #4615C7",
"<. c #4B1DD4",
"1. c #491CD6",
"2. c #5B0CD5",
"3. c #660AD4",
"4. c #6A10D5",
"5. c #4B27D1",
"6. c #4202E3",
"7. c #4300EC",
"8. c #4C06EC",
"9. c #4B00F2",
"0. c #4700F2",
"q. c #581AFA",
"w. c #510EF1",
"e. c #6300FA",
"r. c #6D00FD",
"t. c #6101F7",
"y. c #7400FD",
"u. c #7D00FE",
"i. c #7905FB",
"p. c #770CF4",
"a. c #5020FF",
"s. c #6835F7",
"d. c #0049C8",
"f. c #0359CB",
"g. c #025AD7",
"h. c #0565C7",
"j. c #0178C8",
"k. c #0466D5",
"l. c #0078DC",
"z. c #116FC7",
"x. c #0666E8",
"c. c #007CEA",
"v. c #0774E7",
"b. c #066BF2",
"n. c #0578F9",
"m. c #1974E1",
"M. c #2B53F8",
"N. c #6C4DD6",
"B. c #7947ED",
"V. c #5441DF",
"C. c #8301FD",
"Z. c #8B00FE",
"A. c #8A0AFE",
"S. c #9400FD",
"D. c #9C01FE",
"F. c #9604F8",
"G. c #9411F9",
"H. c #A500FE",
"J. c #AC01FF",
"K. c #B300FF",
"L. c #BB0BFE",
"P. c #B508FC",
"I. c #B517FA",
"U. c #AD1BF7",
"Y. c #AA23FB",
"T. c #B52FF9",
"R. c #8C2FFF",
"E. c #C318FF",
"W. c #C423FF",
"Q. c #CF30FD",
"!. c #8D4FF1",
"~. c #A45AE7",
"^. c #DB59F8",
"/. c #E351FF",
"(. c #F271FF",
"). c #CF6DFC",
"_. c #0087C9",
"`. c #0998C8",
"'. c #0085DC",
"]. c #0798DA",
"[. c #01A3CA",
"{. c #0BABDE",
"}. c #008BEE",
"|. c #0384E8",
" X c #019CEA",
".X c #098DF4",
"XX c #0397F6",
"oX c #1397F8",
"OX c #02A6FA",
"+X c #05B8FA",
"@X c #12B0EA",
"#X c #25B9FD",
"$X c #34BAF4",
"%X c #23BDCF",
"&X c #59BCDE",
"*X c #48B4DE",
"=X c #6ABECB",
"-X c #4CBCEF",
";X c #03C8FD",
":X c #14CAFB",
">X c #01D3FF",
",X c #02DCFF",
"<X c #0CDDFF",
"1X c #09C6E4",
"2X c #2AD5FD",
"3X c #36DAFD",
"4X c #2BCAF7",
"5X c #08E2FF",
"6X c #15E6FF",
"7X c #39E4FF",
"8X c #27E8FF",
"9X c #56C6CB",
"0X c #63C2CD",
"qX c #70D5F5",
"wX c #4FEDFF",
"eX c #6AF5FF",
"rX c #75F3FE",
"tX c #68EFFF",
"yX c #5BC4F7",
"uX c #86B2C4",
"iX c #B797F6",
"pX c #B391F1",
"aX c #9394F4",
"sX c #FF85FF",
"dX c #C5A4F6",
"fX c #D4A5FD",
"gX c #8CC9D2",
"hX c #8DCFFB",
"jX c #98F5FE",
"kX c #93E9FB",
"lX c #A6FBFF",
"zX c #B7F7FF",
"xX c #AFE9FF",
"cX c #A0CDCE",
"vX c #EAD7FB",
"bX c #C2F6FF",
"nX c #F2E1FD",
"mX c #FEF1FF",
/* pixels */
"                                                                                                                                ",
"                                                                                                                                ",
"                                                                                                                                ",
"                                                                                                                                ",
"                                                                                                                                ",
"                                                                                                                                ",
"                                                              = = * * * = * * *                                                 ",
"                                                            = K U K Z Z Z Z Z A > = =                                           ",
"                                                            & M Y Y L L L J J H G A m >                                         ",
"                                                            & v V P T T I I J J H F D m =                                       ",
"                                                            & z B D F F F I L L I F F A =                                       ",
"                                                              > v D D D D D N b v z z d O                                       ",
"                                                          7 $ O l B B S V S b n x k h &                                         ",
"                                                        e 0X`.8 : c b V S S b n x k j #                                         ",
"                                                      6 9XrX4X@X{ w : v N v z k h j - i <                                       ",
"                                                      7 9X7XxXxX$X@X} p r # # # # # 2 ) i +                                     ",
"                                                        q %X3X4XxXzXkX$X{.z.' ) ) ) ' l.R +                                     ",
"                                                          0 {.+X#X#X#X-XqXqXyX.X|.c.c.c.R +                                     ",
"                                                          # ( h. XXXXXXXoXoX|.g.d.d.g.k.R +                                     ",
"                                                        O y t ] ` ` ' ' v.g.d.d./ _ f.R i +                                     ",
"                                                        o g k r { ]._.h.k.) R R R E i , +                                       ",
"                                                        o k B c : ; ; w ] ) ) R E 5 +                                           ",
"                                                        & k V V N v C m : # # # - y O                                           ",
"                                                        & h C S V B B b k h s s a &                                             ",
"                                                          O : m v v B b x k g g f o                                             ",
"                                                          8 ( w % : c v z j f f s o                                             ",
"                                                        0 [.+X4X`.{ w ; % % # O o                                               ",
"                                                      q [.;X:X7X2X;X{.{.j.[ [ 8                                                 ",
"                                                  . e 0X:X:X7X7X<X,X>X;XXX}.}._.<                                               ",
"                                                % e =X2X:XwXwX7X<X,X>X;XOX}.c.'.<                                               ",
"                                              e uXqX2X2XtXeXwX6X,X,X>X;X+X}.c.'.8                                               ",
"                                            e cXkX3XrXjXzXlX8X5X5X,X>X;X+X}.c.}.j.<                                             ",
"                                          e cXkX3XeXlXbXlXwX6X5X5X,X>X;X+X}.c.c.'.u |                                           ",
"                                        % gXjX3XwXeXrXkX3X:X:X:X;X+X+X+XOXc.v.k.k.j.u                                           ",
"                                      . e gX$X+XqXqX$XV.1.<.<.1.<.<.<.<.<.5.N.,.%.c.[ $                                         ",
"                                      e uX5.<.2.Y.Y.G.D.F.S.F.F.U.U.Y.Y.T.~.iX!.2.%.h.8                                         ",
"                                    7 =XaX2.F.P./.Q.E.E.E.E.L.L.E.W.T.T.).fXnXiX!.,.%.[ $                                       ",
"                                    q qXR.F.p.P.^.^.^.^.Q.I.I.I.I.I.T.~.dXnXmXnXiXN.5.k.8                                       ",
"                                  6 9XhXG.K.L.I.4.4.4.4.3.3.3.3.3.3.!.pXvXmXmXmXvXpXN.m.[ <                                     ",
"                                  6 &Xs.C.E.(.(.P.H.H.D.F.S.C.C.i.y.p.!.dXnXmXnXiXB.,.O.h.<                                     ",
"                                  6 &Xq.A.(.sX(.E.K.K.J.H.D.S.Z.C.u.y.p.!.dXnXdX!.8.X.o.h.<                                     ",
"                                  6 &Xq.i./.(.(.E.L.K.K.H.D.S.Z.C.u.A.A.!.iXvXpXB.6...o.h.<                                     ",
"                                  6 &Xa.r.I./.E.L.Q.L.K.J.D.S.Z.C.u.A.A.p.!.pX!.8.X.~ o.h.<                                     ",
"                                  6 *Xa.t.D.P.J.K.L.K.K.J.D.S.Z.C.u.Z.C.t.w.B.w.6.~ ~ o.h.<                                     ",
"                                  6 *Xa.9.S.D.H.J.J.J.J.H.D.Z.C.u.y.r.e.0.8.s.8.@.~ ^ o.h.<                                     ",
"                                  1 ].:.0.C.S.D.H.H.H.H.D.S.Z.u.y.r.e.0.7.7.8.6.X.^ ^ o.h.<                                     ",
"                                  1 ].M.-.0.C.S.S.D.J.J.S.Z.C.y.r.e.0.7.7.7.6.@.~ W W >.' $                                     ",
"                                  1 `..X-.0.y.C.Z.S.L.L.Z.u.u.r.e.0.7.7.7.7.*.~ W W ! f.3                                       ",
"                                    9 j.;.*.0.y.u.C.Z.C.u.y.r.e.0.7.7.7.7.*.@.^ W Q O.' $                                       ",
"                                    . 8 v.;.&.0.r.y.y.r.e.0.0.0.7.7.7.t.6.@.~ W ..$.f.3 .                                       ",
"                                      $ j.n.=.&.0.0.0.0.0.7.7.7.7.7.7.t.X.~ Q  .$.x.[ $                                         ",
"                                        8 j.n.=.*.&.&.&.&.&.7.&.*.*.@...~ Q  .$.x.[ 3                                           ",
"                                        . 8 |.n.;.-.*.*.#.#.#.#. .....Q Q  .$.x.[ 3                                             ",
"                                          < {.>X.Xn.;.=.+.+.+.+. . . . .$.v.k.` 3                                               ",
"                                          1 [.1X3X+Xn.n.n.b.b.b.x.x.x.x.x.h.3 $                                                 ",
"                                            1 0 `. XOXOXXXn.n.n.n.n.b.x.` 3                                                     ",
"                                                < 9 _.|.'.'.l.l.l.f.f.` 3                                                       ",
"                                                    1 < < < < < < , , <                                                         ",
"                                                                                                                                ",
"                                                                                                                                ",
"                                                                                                                                ",
"                                                                                                                                ",
"                                                                                                                                ",
"                                                                                                                                "
};
