/* XPM */
static char *whalkst[] = {
/* columns rows colors chars-per-pixel */
"64 64 184 2 ",
"   c None",
".  c #010101",
"X  c #0C0C0C",
"o  c #090005",
"O  c #15000B",
"+  c #141414",
"@  c #1C1C1C",
"#  c #38001E",
"$  c #2B0017",
"%  c #25122F",
"&  c #261234",
"*  c #2B1B35",
"=  c #311B3E",
"-  c gray14",
";  c #2C2C2C",
":  c #2D2234",
">  c #34243D",
",  c #333333",
"<  c gray23",
"1  c #56002E",
"2  c #5C0032",
"3  c #470026",
"4  c #640036",
"5  c #6E003C",
"6  c #71003D",
"7  c #3C1E50",
"8  c #39184F",
"9  c #352342",
"0  c #3B234C",
"q  c #3D2D47",
"w  c #3F3843",
"e  c #441E5B",
"r  c #730840",
"t  c #7B1446",
"y  c #412F4D",
"u  c #40304B",
"i  c #492C5B",
"p  c #442855",
"a  c #463352",
"s  c #4D365A",
"d  c #4C3958",
"f  c #503A5F",
"g  c #7D354F",
"h  c #4D2B62",
"j  c #542A6D",
"k  c #502E64",
"l  c #56336C",
"z  c #553C67",
"x  c #582875",
"c  c #5B3275",
"v  c #5F3677",
"b  c #602C7F",
"n  c #61347D",
"m  c #62397A",
"M  c #434343",
"N  c #4D4D4D",
"B  c #5C5C5C",
"V  c gray32",
"C  c #714B54",
"Z  c #594366",
"A  c #5C456A",
"S  c #574263",
"D  c #60446F",
"F  c #614573",
"G  c #6E527E",
"H  c #646464",
"J  c #6C6B6C",
"K  c #7B7B7B",
"L  c #767576",
"P  c #696474",
"I  c #820046",
"U  c #8E064D",
"Y  c #940150",
"T  c #9E0056",
"R  c #9D0E57",
"E  c #921451",
"W  c #A00057",
"Q  c #A3185A",
"!  c #9D2C5A",
"~  c #97435C",
"^  c #A74E62",
"/  c #9B676A",
"(  c #AC7C7C",
")  c #5F2C80",
"_  c #602882",
"`  c #6F3D8F",
"'  c #6A3F84",
"]  c #763A9B",
"[  c #7B3AA4",
"{  c #76568A",
"}  c #754394",
"|  c #7D5B92",
" . c #82589C",
".. c #85619B",
"X. c #8F5FAF",
"o. c #8B4DB1",
"O. c #9351BC",
"+. c #8C68A3",
"@. c #936CAA",
"#. c #9E73B8",
"$. c #A173BF",
"%. c #9A4BCC",
"&. c #9F5FC9",
"*. c #A568CB",
"=. c #A97AC6",
"-. c #B576DD",
";. c #A663D1",
":. c #B169E0",
">. c #BA79E4",
",. c #848384",
"<. c #8A868C",
"1. c #8A8A8A",
"2. c #918E93",
"3. c #949494",
"4. c #9C9C9C",
"5. c #979599",
"6. c #A78888",
"7. c #A69D9D",
"8. c #A4A4A4",
"9. c #ACACAC",
"0. c #B2A0A0",
"q. c #B1AEB3",
"w. c #B4B4B4",
"e. c #BCBCBC",
"r. c #BCB6B6",
"t. c #B885D9",
"y. c #B79BC8",
"u. c #BE83E2",
"i. c #C197DB",
"p. c #D0BEDC",
"a. c #C8A7DE",
"s. c #C48BE6",
"d. c #CB9DE8",
"f. c #CCA4E5",
"g. c #D6B5EB",
"h. c #DCBCF0",
"j. c #D4ABEF",
"k. c #C3C3C3",
"l. c #CCCCCC",
"z. c #D0D0D0",
"x. c #D3D3D3",
"c. c gray83",
"v. c #D5D5D5",
"b. c gray84",
"n. c #D7D7D7",
"m. c LightGray",
"M. c #D8D8D8",
"N. c gray85",
"B. c gray86",
"V. c #DADADA",
"C. c gainsboro",
"Z. c #DDDDDD",
"A. c gray87",
"S. c #DFDFDF",
"D. c #DEDEDF",
"F. c #DBCAE5",
"G. c #E4CCF3",
"H. c gray88",
"J. c #E1E1E1",
"K. c #E0E0E1",
"L. c #E2E2E2",
"P. c gray89",
"I. c #E2E2E3",
"U. c #E4E4E4",
"Y. c gray90",
"T. c #E6E6E6",
"R. c #E7E7E7",
"E. c gray91",
"W. c #E9E9E9",
"Q. c gray92",
"!. c #EAEAEA",
"~. c gray93",
"^. c #ECECEC",
"/. c #EEEEEE",
"(. c #EFEFEF",
"). c #F3E7FA",
"_. c #F1F1F1",
"`. c gray94",
"'. c #F3F3F3",
"]. c gray95",
"[. c #F4F4F4",
"{. c #F6F6F6",
"}. c #F9F9F9",
"|. c #FDFDFD",
/* pixels */
"                                                                                                                                ",
"                                                                                                                                ",
"                                                                                                                                ",
"                                                              r.r.r.r.r.9.9.                                                    ",
"                                                      r.e.k.l.l.b.b.b.b.b.b.l.r.r.                                              ",
"                                                r.k.l.M.U.~.~.~.~.`.[.~.~.U.U.M.l.k.r.                                          ",
"                                            9.e.b.~.[.[.[.[.[.[.[.{.}.[.~.U.U.U.M.b.k.e.                                        ",
"                                        r.r.l.U.U.U.[.}.[.[.[.[.~.[.[.~.~.U.~.~.M.b.M.M.e.9.                                    ",
"                                      k.l.M.~.U.K N 3.l.~.~.[.[.~.~.~.U.U.U.U.b.l.4.M.U.M.e.9.                                  ",
"                                    e.b.~.[.[.U.H X + - 9.U.~.~.~.U.U.U.U.r.B - - - k.M.M.l.r.r.                                ",
"                                  r.l.U.[.~.~.k.l.9.r.,.- k.[.~.~.U.~.~.8.. V 1.3.k.M.b.M.b.k.r.9.                              ",
"                                  e.M.~.~.~.k.X B l.b.e.M H M.~.U.~.~.M.K H r.b.b.r.H N l.M.b.k.r.                              ",
"                                8.l.U.~.~.~.r.. . M k.z.r.e.M.U.~.~.~.U.k.e.l.l.K . . B M.U.U.M.k.                              ",
"                                9.b.~.~.[.~.U.M . . ; 9.l.k.b.U.~.~.M.b.k.k.k.B . . @ 1.M.M.M.M.k.r.                            ",
"                                r.M.~.~.~.U.M.k.. . . - 9.l.b.M.U.U.b.l.l.9.L . . . < e.b.b.l.l.k.9.                            ",
"                                r.M.~.~.~.M.M.M.H . . @ N e.M.M.U.M.b.b.9.@ . . . . 8.k.k.l.l.k.e.9.                            ",
"                                9.M.~.~.U.M.M.U.4.. . . . M l.U.U.U.M.l.< . . . . X r.k.e.e.l.k.e.9.9.                          ",
"                                8.M.~.~.U.M.M.b.M . . . . @ r.M.M.U.U.e.- . . . . . 1.e.e.e.e.e.r.9.9.                          ",
"                                8.z.~.~.U.M.l.; . . X + < 4.k.l.M.b.b.b.9.< . . . . . M 9.k.e.r.r.r.9.                          ",
"                                9.k.U.~.U.M.V . . . M 8.8.r.e.b.b.l.l.l.k.r.4.; . . . . M k.k.e.e.r.9.                          ",
"                                  k.U.~.~.8.. . @ 1.q.r.8.r.k.M.U.M.b.l.e.r.r.4.1.B V . M k.l.k.k.r.9.                          ",
"                                  k.M.~.M.l.J ,.8.r.r.r.9.e.l.U.b.M.~.M.l.e.r.8.4.8.9.3.r.l.l.k.k.e.8.                          ",
"                                  k.l.U.M.k.r.r.9.r.r.e.k.b.M.3.- H k.~.U.b.k.r.r.r.r.e.k.l.l.l.l.k.8.                          ",
"                                  k.k.M.M.l.k.k.k.k.k.l.b.M.,.. . . . 9.~.U.M.b.b.l.l.M.M.M.r.l.b.e.8.                          ",
"                                    e.b.b.,.8.U.M.b.l.b.M.8.. . . . + X 3.~.~.U.M.M.U.M.k.H @ r.l.9.8.                          ",
"                                    e.l.1.. . J k.M.M.M.r.+ . . X . . . . 1.M.U.U.U.9., + . + e.e.4.                            ",
"                                    e.l.e.X . . @ 3.l.9.X . . . K N . . . . , e.l.K . . . + 9.b.r.3.                            ",
"                                    r.l.~.8.. . . . @ X O 1 r 0.~.~./ 2 3 $ . @ X . . . , e.U.M.r.4.                            ",
"                                      l.~.[.4.X o # 1 4 6 t r.U.U.~.[./ 6 6 5 5 4 O X H M.U.M.b.r.8.                            ",
"                                      l.U.~.[.7.5 6 r I E e.U.M.M.M.U.H.~ U Y I 6 C e.U.U.U.M.b.r.                              ",
"                                      k.M.U.~.U.g Y T R e.~.M.z.b.b.M.~.k.Q W T ^ U.U.M.M.M.M.b.e.                              ",
"                                      k.M.U.U.~.U.6.~ ! l.M.b.l.l.b.M.~.~.6.U ( U.M.b.b.b.b.b.b.e.                              ",
"                                      e.M.U.U.~.[.[.U.l.M.b.b.b.b.b.U.U.~.M.9.M.b.b.b.b.M.M.b.k.e.                              ",
"                                      e.M.U.U.~.[.[.[.~.M.M.M.b.M.M.U.U.U.M.b.l.b.b.b.M.U.U.M.k.e.                              ",
"                                      r.U.U.U.U.~.[.~.U.U.U.M.M.M.U.~.U.U.M.b.b.M.M.U.~.~.~.U.b.l.                              ",
"                                    4.k.U.U.U.U.~.U.b.b.U.~.U.M.M.M.U.U.U.U.M.U.~.U.~.[.[.~.~.M.k.                              ",
"                                    4.l.~.~.~.~.U.b.r.k.~.[.~.~.U.M.U.U.U.M.b.~.[.[.[.[.[.~.~.M.r.                              ",
"                                    8.M.[.~.U.U.M.l.q.r.U.[.~.~.U.U.U.U.b.l.e.b.[.[.[.~.U.~.U.b.9.9.                            ",
"                                  8.r.b.~.~.U.M.l.l.9.9.H.[.~.U.M.M.b.b.l.k.9.k.~.[.[.~.U.U.U.b.e.9.                            ",
"                                  8.k.M.[.[.U.M.k.e.9.9.b.~.[.U.b.b.b.l.e.e.e.e.U.[.[.[.U.U.M.l.k.9.                            ",
"                                  r.M.[.[.~.U.b.k.r.8.9.l.~.[.U.M.b.M.l.k.e.e.9.b.[.}.[.U.U.b.k.k.8.8.                          ",
"                                  l.~.}.[.~.U.b.k.9.9.9.k.U.~.U.b.M.M.l.k.e.k.r.k.[.}.[.U.M.b.k.e.9.4.                          ",
"                                r.U.}.[.~.U.M.l.e.9.9.8.l.U.~.M.b.b.l.k.k.e.e.r.e.~.}.[.U.M.M.b.l.e.8.                          ",
"                              8.l.[.}.[.U.M.l.k.r.8.8.9.k.U.~.U.M.M.z.e.e.e.9.9.9.b.~.[.~.M.M.b.l.l.e.9.                        ",
"                              e.~.}.{.U.M.z.k.e.9.8.8.8.e.U.~.~.M.M.b.k.e.r.9.9.4.k.U.[.[.~.~.U.b.l.k.r.                        ",
"                            r.U.}.}.U.b.z.l.e.9.8.4.4.4.e.M.[.~.M.b.b.k.k.9.9.9.9.e.M.[.}.}.[.~.U.b.b.k.8.                      ",
"                          e.U.}.}.[.M.k.k.k.r.4.4.4.4.4.9.M.[.~.M.l.l.k.k.9.8.9.8.8.e.U.[.}.}.}.~.U.M.b.e.9.                    ",
"                        8.l.~.~.~.M.l.e.e.r.r.8.4.4.3.3.4.M.[.}.U.b.l.e.r.8.4.3.3.4.4.k.U.[.}.}.[.~.~.M.b.e.9.                  ",
"                          4.4.9.r.9.8.8.8.9.9.9.4.3.1.3.1.b.~.}.~.M.l.e.9.8.5.J a a <.3.k.M.~.~.[.[.[.~.M.b.e.e.                ",
"                                3.3.,.2.5.8.5.2.2.<.<.L K k.M.~.U.l.k.9.,.P y & 0 * q   2.4.r.k.b.~.~.~.U.M.l.e.9.              ",
"                                                Z S S A d w   b.k.e.q.    0 9 & = % :         4.8.9.9.9.r.8.9.8.                ",
"                                              A a a a u :                   p 9 d y * >                                         ",
"                          *.;.                v z f y > >                     i l i i > y                                       ",
"                        =.f.h.j.s.;.        b x j 0 9 >                       v h l j i q                                       ",
"                        @.$.h.).).j.:.    ` ] x e 0 >                           i n j j F d                                     ",
"                          m X.i.G.F.a.s.-.[ _ 8 7 =                               } ' ..+.{ A                                   ",
"                            p v ;.h.p.y.u.%.) p =                               O.*.#.+.| { G A                                 ",
"                              s n *.f.t.&.O.v 0                               &.t.t.@...{ F A                                   ",
"                                k v o.=.#.] 0                               %.d.G.f.=.| Z f                                     ",
"                                  0 l  .@.} 0                               >.h.g.i.| F d                                       ",
"                                    > h ` n                                 -.t.=.+.D z                                         ",
"                                        h l                                   +...                                              ",
"                                                                                                                                ",
"                                                                                                                                "
};
